<?xml version="1.0" encoding="UTF-8"?>
<svg xmlns="http://www.w3.org/2000/svg" version="1.1" viewBox="0 0 500 500" width="160" height="auto">
  <g id="OBJECTS">
    <g>
      <path fill="#5757FF" d="M249.999,396.384c-14.061,0-27.969-1.992-41.337-5.92c-0.211-0.063-0.419-0.131-0.625-0.205
        c-19.485-6.133-32.492-15.763-38.667-28.632c-5.869-12.231-5.426-26.549,1.356-43.772l69.089-173.932
        c1.658-4.173,5.693-6.913,10.184-6.913c4.49,0,8.526,2.739,10.184,6.913l68.738,173.048c0.119,0.298,0.237,0.595,0.354,0.893
        c2.21,5.626-0.552,11.977-6.174,14.197c-5.619,2.22-11.977-0.53-14.208-6.146l-0.34-0.856
        c-17.879-44.477-54.56-51.145-74.914-51.145c-6.052,0-10.957-4.906-10.957-10.957S227.588,252,233.639,252
        c18.933,0,36.14,4.379,50.919,12.653l-34.56-87.004l-58.893,148.266c-4.475,11.364-5.107,19.709-1.978,26.231
        c3.48,7.252,12.185,13.083,25.873,17.33c0.09,0.028,0.179,0.056,0.267,0.086c11.229,3.257,22.913,4.908,34.731,4.908
        c68.633,0,124.47-55.837,124.47-124.469c0-68.633-55.837-124.47-124.47-124.47c-68.633,0-124.469,55.836-124.469,124.47
        c0,18.877,4.114,37.003,12.229,53.873c2.623,5.455,0.328,12.002-5.126,14.625c-5.454,2.62-12.001,0.328-14.624-5.126
        c-9.552-19.859-14.394-41.181-14.394-63.373c0-80.716,65.667-146.384,146.384-146.384c80.717,0,146.385,65.668,146.385,146.384
        C396.384,330.716,330.716,396.384,249.999,396.384z"/>
      <path fill="none" stroke="#434960" stroke-width="1.2" stroke-linecap="round" stroke-linejoin="round" d="M249.999,396.384
        c-14.061,0-27.969-1.992-41.337-5.92c-0.211-0.063-0.419-0.131-0.625-0.205c-19.485-6.133-32.492-15.763-38.667-28.632
        c-5.869-12.231-5.426-26.549,1.356-43.772l69.089-173.932c1.658-4.173,5.693-6.913,10.184-6.913c4.49,0,8.526,2.739,10.184,6.913
        l68.738,173.048c0.119,0.298,0.237,0.595,0.354,0.893c2.21,5.626-0.552,11.977-6.174,14.197c-5.619,2.22-11.977-0.53-14.208-6.146
        l-0.34-0.856c-17.879-44.477-54.56-51.145-74.914-51.145c-6.052,0-10.957-4.906-10.957-10.957S227.588,252,233.639,252
        c18.933,0,36.14,4.379,50.919,12.653l-34.56-87.004l-58.893,148.266c-4.475,11.364-5.107,19.709-1.978,26.231
        c3.48,7.252,12.185,13.083,25.873,17.33c0.09,0.028,0.179,0.056,0.267,0.086c11.229,3.257,22.913,4.908,34.731,4.908
        c68.633,0,124.47-55.837,124.47-124.469c0-68.633-55.837-124.47-124.47-124.47c-68.633,0-124.469,55.836-124.469,124.47
        c0,18.877,4.114,37.003,12.229,53.873c2.623,5.455,0.328,12.002-5.126,14.625c-5.454,2.62-12.001,0.328-14.624-5.126
        c-9.552-19.859-14.394-41.181-14.394-63.373c0-80.716,65.667-146.384,146.384-146.384c80.717,0,146.385,65.668,146.385,146.384
        C396.384,330.716,330.716,396.384,249.999,396.384z"/>
    </g>
  </g>
</svg>
